<svg width="512" height="512" viewBox="0 0 512 512" fill="none" xmlns="http://www.w3.org/2000/svg">
<rect width="512" height="512" rx="256" fill="white"/>
<path d="M155.844 384.64C185.289 405.9 221.092 416.509 257.366 414.722C293.641 412.935 328.227 398.858 355.44 374.806C382.653 350.755 400.872 318.159 407.103 282.379C413.333 246.599 407.203 209.764 389.722 177.93C372.24 146.096 344.447 121.157 310.912 107.214C277.376 93.2713 240.095 91.1539 205.197 101.21C170.298 111.266 139.86 132.898 118.887 162.548C97.9131 192.198 87.6524 228.102 89.7915 264.358L105.714 263.418C103.788 230.778 113.026 198.453 131.908 171.759C150.791 145.065 178.194 125.59 209.613 116.537C241.032 107.483 274.597 109.389 304.788 121.942C334.98 134.495 360.002 156.947 375.741 185.607C391.48 214.268 396.998 247.43 391.389 279.643C385.78 311.856 369.377 341.201 344.877 362.855C320.378 384.509 289.239 397.182 256.581 398.791C223.924 400.4 191.69 390.849 165.181 371.709L155.844 384.64Z" fill="black"/>
<path d="M144.719 314.162C139.942 321.113 133.175 326.457 125.306 329.491C117.436 332.525 108.833 333.108 100.627 331.163C92.4201 329.218 84.9938 324.835 79.3236 318.592C73.6533 312.349 70.0042 304.536 68.8556 296.181C67.7071 287.826 69.1129 279.318 72.8883 271.776C76.6636 264.235 82.6321 258.011 90.0094 253.924C97.3867 249.837 105.828 248.077 114.224 248.875C122.62 249.673 130.578 252.992 137.053 258.397L126.319 271.258C122.439 268.019 117.67 266.03 112.638 265.552C107.607 265.074 102.549 266.128 98.128 268.578C93.7072 271.027 90.1307 274.756 87.8684 279.275C85.606 283.795 84.7636 288.893 85.4519 293.9C86.1401 298.906 88.3268 303.588 91.7247 307.329C95.1225 311.071 99.5726 313.696 104.49 314.862C109.408 316.028 114.563 315.678 119.279 313.86C123.994 312.042 128.05 308.84 130.912 304.675L144.719 314.162Z" fill="black"/>
<path d="M465.175 160.228C476.123 178.588 470.114 202.346 451.754 213.294C433.394 224.242 409.636 218.234 398.688 199.874C387.74 181.514 393.749 157.755 412.108 146.807C430.468 135.86 454.227 141.868 465.175 160.228ZM412.011 191.929C418.571 202.931 432.808 206.532 443.81 199.972C454.812 193.411 458.412 179.174 451.852 168.172C445.292 157.17 431.055 153.57 420.053 160.13C409.051 166.691 405.45 180.928 412.011 191.929Z" fill="black"/>
<path d="M363.493 188.16C400.862 250.828 380.353 331.924 317.685 369.293C255.016 406.662 173.92 386.152 136.552 323.484C99.183 260.816 119.692 179.72 182.36 142.351C245.029 104.983 326.124 125.492 363.493 188.16ZM150.041 315.441C182.967 370.659 254.423 388.73 309.641 355.804C364.859 322.877 382.93 251.422 350.004 196.204C317.078 140.985 245.622 122.914 190.404 155.841C135.186 188.767 117.115 260.222 150.041 315.441Z" fill="black"/>
<path fill-rule="evenodd" clip-rule="evenodd" d="M297.532 322.649C406.007 254.863 475.646 170.629 453.073 134.507C430.5 98.3843 324.265 124.052 215.789 191.838C107.313 259.623 37.6751 343.858 60.2477 379.98C82.8203 416.103 189.056 390.435 297.532 322.649ZM289.564 309.597C390.252 246.678 457 171.866 438.649 142.499C420.297 113.132 323.797 140.331 223.109 203.25C122.421 266.169 55.6735 340.982 74.0246 370.349C92.3758 399.716 188.876 372.517 289.564 309.597Z" fill="black"/>
</svg>
