<svg width="512" height="512" viewBox="0 0 512 512" fill="none" xmlns="http://www.w3.org/2000/svg">
<g clip-path="url(#clip0_516_679)">
<rect width="512" height="512" rx="256" fill="white"/>
<g filter="url(#filter0_f_516_679)">
<path d="M601 389.174C601 515.647 495.787 618.174 366 618.174C236.213 618.174 131 515.647 131 389.174C131 310.364 171.854 240.852 234.05 199.653C210.122 167.772 196 128.489 196 86C196 -20.591 284.871 -107 394.5 -107C504.129 -107 593 -20.591 593 86C593 141.177 569.186 190.945 531.006 226.12C574.216 267.647 601 325.362 601 389.174Z" fill="url(#paint0_linear_516_679)"/>
</g>
<g filter="url(#filter1_f_516_679)">
<path d="M-46 45C-46 -33.9767 18.2471 -98 97.5 -98C176.753 -98 241 -33.9767 241 45C241 73.987 232.345 100.96 217.47 123.492C244.908 148.801 262 184.474 262 224C262 262.9 245.446 298.068 218.767 323.297C232.88 347.009 241 374.794 241 404.5C241 491.485 171.38 562 85.5 562C-0.38028 562 -70 491.485 -70 404.5C-70 355.244 -47.6764 311.269 -12.7177 282.388C-21.2424 264.635 -26 244.854 -26 224C-26 195.815 -17.3093 169.589 -2.37341 147.683C-29.2784 121.691 -46 85.2913 -46 45Z" fill="url(#paint1_linear_516_679)"/>
</g>
<g filter="url(#filter2_f_516_679)">
<path d="M601 389.174C601 515.647 495.787 618.174 366 618.174C236.213 618.174 131 515.647 131 389.174C131 310.364 171.854 240.852 234.05 199.653C210.122 167.772 196 128.489 196 86C196 -20.591 284.871 -107 394.5 -107C504.129 -107 593 -20.591 593 86C593 141.177 569.186 190.945 531.006 226.12C574.216 267.647 601 325.362 601 389.174Z" fill="url(#paint2_linear_516_679)"/>
</g>
<g filter="url(#filter3_f_516_679)">
<path d="M141.739 612.708C79.6013 576.931 58.9915 496.235 95.7061 432.469C132.421 368.703 212.557 346.013 274.695 381.791C313.415 404.085 336.01 443.82 338.658 486.033C361.091 483.295 384.385 487.469 405.261 499.489C457.631 529.642 474.944 597.749 443.932 651.611C412.92 705.473 345.326 724.694 292.956 694.541C265.847 678.932 248.131 653.153 241.65 624.445C209.024 633.927 173.091 630.76 141.739 612.708Z" fill="url(#paint3_linear_516_679)"/>
</g>
<g filter="url(#filter4_f_516_679)">
<path d="M-38.9663 398.284C-132.107 344.657 -163 223.699 -107.967 128.118C-52.9342 32.5374 67.184 -1.47258 160.325 52.155C218.364 85.5722 252.232 145.133 256.201 208.407C289.826 204.303 324.743 210.56 356.034 228.577C434.533 273.774 460.485 375.862 414 456.598C367.515 537.333 266.195 566.143 187.697 520.946C147.062 497.549 120.508 458.909 110.793 415.876C61.8889 430.09 8.02751 425.342 -38.9663 398.284Z" fill="url(#paint4_linear_516_679)"/>
</g>
<g filter="url(#filter5_f_516_679)">
<path d="M341.492 176.833C308.636 138.321 314.039 79.7676 353.56 46.0507C393.081 12.3338 451.754 16.2211 484.61 54.7333C505.084 78.7315 510.702 110.512 502.466 139.215C518.035 142.707 532.54 151 543.578 163.938C571.269 196.396 566.655 245.796 533.272 274.276C499.889 302.756 450.379 299.531 422.688 267.074C408.354 250.272 402.676 228.93 405.165 208.301C381.219 206.881 358.069 196.264 341.492 176.833Z" fill="url(#paint5_linear_516_679)"/>
</g>
<g filter="url(#filter6_f_516_679)">
<path d="M52.9865 173.503C69.9668 129.416 69.9926 80.5841 53.059 36.5299C36.1253 -7.52426 3.44638 -43.6417 -38.6048 -64.7788C-80.656 -85.9159 -129.064 -90.5571 -174.389 -77.7972C-219.449 -65.1118 -258.249 -36.1323 -283.318 3.5372C-283.611 4.00223 -283.867 4.49156 -284.083 4.99757C-286.949 11.6998 -282.383 19.2299 -275.142 19.7438L-261.981 20.6777L-244.414 21.6325C-215.937 23.1803 -188.389 17.8816 -161.609 7.98693C-158.712 6.91654 -155.394 5.82859 -151.457 4.72047C-126.572 -2.28525 -99.9944 0.262965 -76.9066 11.8681C-53.8187 23.4732 -35.8766 43.3032 -26.5794 67.4908C-17.2821 91.6783 -16.7894 117.913 -26.1122 142.118C-35.8401 166.163 -54.1111 184.953 -77.403 196.209C-100.695 207.466 -127.315 209.615 -152.072 202.237C-176.828 194.858 -197.946 178.482 -211.308 156.301C-213.421 152.792 -215.098 149.722 -216.479 146.954C-229.249 121.367 -245.718 98.6038 -267.538 80.1948L-280.998 68.839L-291.231 60.4906C-296.862 55.8969 -305.332 58.2546 -307.818 65.1078C-308.005 65.6252 -308.153 66.157 -308.257 66.6977C-317.061 112.82 -308.556 160.57 -284.363 200.733C-260.027 241.133 -221.564 270.96 -176.473 284.399C-131.382 297.838 -82.8976 293.924 -40.4747 273.421C1.94819 252.918 35.2687 217.297 52.9865 173.503Z" fill="url(#paint6_linear_516_679)"/>
</g>
<g filter="url(#filter7_f_516_679)">
<path d="M18.4916 338.833C-14.3644 300.321 -8.96126 241.768 30.5599 208.051C70.0811 174.334 128.754 178.221 161.61 216.733C182.084 240.732 187.702 272.512 179.466 301.215C195.035 304.707 209.54 313 220.578 325.938C248.269 358.396 243.655 407.796 210.272 436.276C176.889 464.756 127.379 461.531 99.6881 429.074C85.354 412.272 79.6763 390.93 82.1645 370.301C58.2186 368.881 35.069 358.264 18.4916 338.833Z" fill="url(#paint7_linear_516_679)"/>
</g>
<path d="M155.844 384.64C185.289 405.9 221.092 416.509 257.366 414.722C293.641 412.935 328.227 398.858 355.44 374.806C382.653 350.755 400.872 318.159 407.103 282.379C413.333 246.599 407.203 209.764 389.722 177.93C372.24 146.096 344.447 121.157 310.912 107.214C277.376 93.2713 240.095 91.1539 205.197 101.21C170.298 111.266 139.86 132.898 118.887 162.548C97.9131 192.198 87.6524 228.102 89.7915 264.358L105.714 263.418C103.788 230.778 113.026 198.453 131.908 171.759C150.791 145.065 178.194 125.59 209.613 116.537C241.032 107.483 274.597 109.389 304.788 121.942C334.98 134.495 360.002 156.947 375.741 185.607C391.48 214.268 396.998 247.43 391.389 279.643C385.78 311.856 369.377 341.201 344.877 362.855C320.378 384.509 289.239 397.182 256.581 398.791C223.924 400.4 191.69 390.849 165.181 371.709L155.844 384.64Z" fill="white"/>
<path d="M144.719 314.162C139.942 321.113 133.175 326.457 125.306 329.491C117.436 332.525 108.833 333.108 100.627 331.163C92.4201 329.218 84.9938 324.835 79.3236 318.592C73.6533 312.349 70.0042 304.536 68.8556 296.181C67.7071 287.826 69.1129 279.318 72.8883 271.776C76.6636 264.235 82.6321 258.011 90.0094 253.924C97.3867 249.837 105.828 248.077 114.224 248.875C122.62 249.673 130.578 252.992 137.053 258.397L126.319 271.258C122.439 268.019 117.67 266.03 112.638 265.552C107.607 265.074 102.549 266.128 98.128 268.578C93.7072 271.027 90.1307 274.756 87.8684 279.275C85.606 283.795 84.7636 288.893 85.4519 293.9C86.1401 298.906 88.3268 303.588 91.7247 307.329C95.1225 311.071 99.5726 313.696 104.49 314.862C109.408 316.028 114.563 315.678 119.279 313.86C123.994 312.042 128.05 308.84 130.912 304.675L144.719 314.162Z" fill="white"/>
<path d="M465.175 160.228C476.123 178.588 470.114 202.346 451.754 213.294C433.394 224.242 409.636 218.234 398.688 199.874C387.74 181.514 393.749 157.755 412.108 146.807C430.468 135.86 454.227 141.868 465.175 160.228ZM412.011 191.929C418.571 202.931 432.808 206.532 443.81 199.972C454.812 193.411 458.412 179.174 451.852 168.172C445.292 157.17 431.055 153.57 420.053 160.13C409.051 166.691 405.45 180.928 412.011 191.929Z" fill="white"/>
<path d="M363.493 188.16C400.862 250.828 380.353 331.924 317.685 369.293C255.016 406.662 173.92 386.152 136.552 323.484C99.183 260.816 119.692 179.72 182.36 142.351C245.029 104.983 326.124 125.492 363.493 188.16ZM150.041 315.441C182.967 370.659 254.423 388.73 309.641 355.804C364.859 322.877 382.93 251.422 350.004 196.204C317.078 140.985 245.622 122.914 190.404 155.841C135.186 188.767 117.115 260.222 150.041 315.441Z" fill="white"/>
<path fill-rule="evenodd" clip-rule="evenodd" d="M297.532 322.649C406.007 254.863 475.646 170.629 453.073 134.507C430.5 98.3843 324.265 124.052 215.789 191.838C107.313 259.623 37.6751 343.858 60.2477 379.98C82.8203 416.103 189.056 390.435 297.532 322.649ZM289.564 309.597C390.252 246.678 457 171.866 438.649 142.499C420.297 113.132 323.797 140.331 223.109 203.25C122.421 266.169 55.6735 340.982 74.0246 370.349C92.3758 399.716 188.876 372.517 289.564 309.597Z" fill="white"/>
</g>
<defs>
<filter id="filter0_f_516_679" x="98" y="-140" width="536" height="791.174" filterUnits="userSpaceOnUse" color-interpolation-filters="sRGB">
<feFlood flood-opacity="0" result="BackgroundImageFix"/>
<feBlend mode="normal" in="SourceGraphic" in2="BackgroundImageFix" result="shape"/>
<feGaussianBlur stdDeviation="16.5" result="effect1_foregroundBlur_516_679"/>
</filter>
<filter id="filter1_f_516_679" x="-118.9" y="-146.9" width="429.8" height="757.8" filterUnits="userSpaceOnUse" color-interpolation-filters="sRGB">
<feFlood flood-opacity="0" result="BackgroundImageFix"/>
<feBlend mode="normal" in="SourceGraphic" in2="BackgroundImageFix" result="shape"/>
<feGaussianBlur stdDeviation="24.45" result="effect1_foregroundBlur_516_679"/>
</filter>
<filter id="filter2_f_516_679" x="98" y="-140" width="536" height="791.174" filterUnits="userSpaceOnUse" color-interpolation-filters="sRGB">
<feFlood flood-opacity="0" result="BackgroundImageFix"/>
<feBlend mode="normal" in="SourceGraphic" in2="BackgroundImageFix" result="shape"/>
<feGaussianBlur stdDeviation="16.5" result="effect1_foregroundBlur_516_679"/>
</filter>
<filter id="filter3_f_516_679" x="-66.4863" y="220.836" width="669.814" height="631.967" filterUnits="userSpaceOnUse" color-interpolation-filters="sRGB">
<feFlood flood-opacity="0" result="BackgroundImageFix"/>
<feBlend mode="normal" in="SourceGraphic" in2="BackgroundImageFix" result="shape"/>
<feGaussianBlur stdDeviation="72" result="effect1_foregroundBlur_516_679"/>
</filter>
<filter id="filter4_f_516_679" x="-279.236" y="-117.26" width="860.314" height="803.584" filterUnits="userSpaceOnUse" color-interpolation-filters="sRGB">
<feFlood flood-opacity="0" result="BackgroundImageFix"/>
<feBlend mode="normal" in="SourceGraphic" in2="BackgroundImageFix" result="shape"/>
<feGaussianBlur stdDeviation="72" result="effect1_foregroundBlur_516_679"/>
</filter>
<filter id="filter5_f_516_679" x="140.99" y="-155.898" width="599.678" height="628.592" filterUnits="userSpaceOnUse" color-interpolation-filters="sRGB">
<feFlood flood-opacity="0" result="BackgroundImageFix"/>
<feBlend mode="normal" in="SourceGraphic" in2="BackgroundImageFix" result="shape"/>
<feGaussianBlur stdDeviation="89.5" result="effect1_foregroundBlur_516_679"/>
</filter>
<filter id="filter6_f_516_679" x="-379.443" y="-152.659" width="512.983" height="512.709" filterUnits="userSpaceOnUse" color-interpolation-filters="sRGB">
<feFlood flood-opacity="0" result="BackgroundImageFix"/>
<feBlend mode="normal" in="SourceGraphic" in2="BackgroundImageFix" result="shape"/>
<feGaussianBlur stdDeviation="33.9" result="effect1_foregroundBlur_516_679"/>
</filter>
<filter id="filter7_f_516_679" x="-182.01" y="6.10156" width="599.678" height="628.592" filterUnits="userSpaceOnUse" color-interpolation-filters="sRGB">
<feFlood flood-opacity="0" result="BackgroundImageFix"/>
<feBlend mode="normal" in="SourceGraphic" in2="BackgroundImageFix" result="shape"/>
<feGaussianBlur stdDeviation="89.5" result="effect1_foregroundBlur_516_679"/>
</filter>
<linearGradient id="paint0_linear_516_679" x1="580" y1="138" x2="222.5" y2="587.5" gradientUnits="userSpaceOnUse">
<stop stop-color="#1C0B88"/>
<stop offset="1"/>
</linearGradient>
<linearGradient id="paint1_linear_516_679" x1="-438.5" y1="-59.5" x2="-161" y2="459" gradientUnits="userSpaceOnUse">
<stop offset="0.681614"/>
<stop offset="0.820455" stop-color="#150D79"/>
</linearGradient>
<linearGradient id="paint2_linear_516_679" x1="580" y1="138" x2="222.5" y2="587.5" gradientUnits="userSpaceOnUse">
<stop stop-color="#1F087C"/>
<stop offset="1"/>
</linearGradient>
<linearGradient id="paint3_linear_516_679" x1="414.795" y1="702.217" x2="151.37" y2="370.642" gradientUnits="userSpaceOnUse">
<stop/>
<stop offset="1" stop-color="#02007B"/>
</linearGradient>
<linearGradient id="paint4_linear_516_679" x1="370.325" y1="532.452" x2="-24.5299" y2="35.4448" gradientUnits="userSpaceOnUse">
<stop offset="0.138355"/>
<stop offset="0.395157" stop-color="#150067"/>
<stop offset="1" stop-color="#0500FF"/>
</linearGradient>
<linearGradient id="paint5_linear_516_679" x1="376.911" y1="49.3525" x2="520.347" y2="288.849" gradientUnits="userSpaceOnUse">
<stop stop-color="#0A0083"/>
<stop offset="1"/>
</linearGradient>
<linearGradient id="paint6_linear_516_679" x1="-387.622" y1="357.497" x2="-294.741" y2="-445.909" gradientUnits="userSpaceOnUse">
<stop stop-color="#181047"/>
<stop offset="0.385703"/>
</linearGradient>
<linearGradient id="paint7_linear_516_679" x1="53.9113" y1="211.352" x2="197.347" y2="450.849" gradientUnits="userSpaceOnUse">
<stop stop-color="#2400FF"/>
<stop offset="1" stop-color="#484545"/>
</linearGradient>
<clipPath id="clip0_516_679">
<rect width="512" height="512" rx="256" fill="white"/>
</clipPath>
</defs>
</svg>
