<svg width="415" height="321" viewBox="0 0 415 321" fill="none" xmlns="http://www.w3.org/2000/svg">
<path d="M99.8438 290.64C129.289 311.9 165.092 322.509 201.366 320.722C237.641 318.935 272.227 304.858 299.44 280.806C326.653 256.755 344.872 224.159 351.103 188.379C357.333 152.599 351.203 115.764 333.722 83.93C316.24 52.0958 288.447 27.1572 254.912 13.2143C221.376 -0.728684 184.095 -2.84607 149.197 7.2102C114.298 17.2665 83.8602 38.8979 62.8867 68.548C41.9131 98.1982 31.6524 134.102 33.7915 170.358L49.7137 169.418C47.7879 136.778 57.0256 104.453 75.9081 77.759C94.7907 51.0649 122.194 31.5902 153.613 22.5365C185.032 13.4828 218.597 15.3891 248.788 27.942C278.98 40.4948 304.002 62.947 319.741 91.6074C335.48 120.268 340.998 153.43 335.389 185.643C329.78 217.856 313.377 247.201 288.877 268.855C264.378 290.509 233.239 303.182 200.581 304.791C167.924 306.4 135.69 296.849 109.181 277.709L99.8438 290.64Z" fill="black"/>
<path d="M88.7188 220.162C83.9422 227.113 77.1748 232.457 69.3055 235.491C61.4362 238.525 52.8332 239.108 44.6266 237.163C36.4201 235.218 28.9938 230.835 23.3236 224.592C17.6533 218.349 14.0042 210.536 12.8556 202.181C11.7071 193.826 13.1129 185.318 16.8883 177.776C20.6636 170.235 26.6321 164.011 34.0094 159.924C41.3867 155.837 49.8279 154.077 58.224 154.875C66.6201 155.673 74.5783 158.992 81.0532 164.397L70.3185 177.258C66.4385 174.019 61.6696 172.03 56.6384 171.552C51.6071 171.074 46.5488 172.128 42.128 174.578C37.7072 177.027 34.1307 180.756 31.8684 185.275C29.606 189.795 28.7636 194.893 29.4519 199.9C30.1401 204.906 32.3268 209.588 35.7247 213.329C39.1225 217.071 43.5726 219.696 48.4903 220.862C53.408 222.028 58.5633 221.678 63.2789 219.86C67.9944 218.042 72.0498 214.84 74.912 210.675L88.7188 220.162Z" fill="black"/>
<path d="M409.175 66.228C420.123 84.5878 414.114 108.346 395.754 119.294C377.394 130.242 353.636 124.234 342.688 105.874C331.74 87.5139 337.749 63.7553 356.108 52.8075C374.468 41.8596 398.227 47.8682 409.175 66.228ZM356.011 97.9295C362.571 108.931 376.808 112.532 387.81 105.972C398.812 99.4112 402.412 85.1741 395.852 74.1722C389.292 63.1703 375.055 59.5697 364.053 66.1301C353.051 72.6905 349.45 86.9276 356.011 97.9295Z" fill="black"/>
<path d="M307.493 94.1601C344.862 156.828 324.353 237.924 261.685 275.293C199.016 312.662 117.92 292.152 80.5518 229.484C43.183 166.816 63.6923 85.7202 126.36 48.3514C189.029 10.9827 270.124 31.4919 307.493 94.1601ZM94.0409 221.441C126.967 276.659 198.423 294.73 253.641 261.804C308.859 228.877 326.93 157.422 294.004 102.204C261.078 46.9854 189.622 28.9142 134.404 61.8406C79.1857 94.767 61.1145 166.222 94.0409 221.441Z" fill="black"/>
<path fill-rule="evenodd" clip-rule="evenodd" d="M241.532 228.649C350.007 160.863 419.646 76.6293 397.073 40.5068C374.5 4.38429 268.265 30.0523 159.789 97.8379C51.3132 165.623 -18.3249 249.858 4.2477 285.98C26.8203 322.103 133.056 296.435 241.532 228.649ZM233.564 215.597C334.252 152.678 401 77.8656 382.649 48.4986C364.297 19.1317 267.797 46.3311 167.109 109.25C66.4208 172.169 -0.326517 246.982 18.0246 276.349C36.3758 305.716 132.876 278.517 233.564 215.597Z" fill="black"/>
</svg>
